<svg version="1.1" xmlns="http://www.w3.org/2000/svg" xmlns:xlink="http://www.w3.org/1999/xlink" width="332" height="452"><defs/><g><text fill="#eeeeee" stroke="none" font-family="Arial" font-size="24px" font-style="normal" font-weight="normal" text-decoration="none" x="0" y="0">UNREGISTERED</text><text fill="#eeeeee" stroke="none" font-family="Arial" font-size="24px" font-style="normal" font-weight="normal" text-decoration="none" x="0" y="30">UNREGISTERED</text><text fill="#eeeeee" stroke="none" font-family="Arial" font-size="24px" font-style="normal" font-weight="normal" text-decoration="none" x="0" y="60">UNREGISTERED</text><text fill="#eeeeee" stroke="none" font-family="Arial" font-size="24px" font-style="normal" font-weight="normal" text-decoration="none" x="0" y="90">UNREGISTERED</text><text fill="#eeeeee" stroke="none" font-family="Arial" font-size="24px" font-style="normal" font-weight="normal" text-decoration="none" x="0" y="120">UNREGISTERED</text><text fill="#eeeeee" stroke="none" font-family="Arial" font-size="24px" font-style="normal" font-weight="normal" text-decoration="none" x="0" y="150">UNREGISTERED</text><text fill="#eeeeee" stroke="none" font-family="Arial" font-size="24px" font-style="normal" font-weight="normal" text-decoration="none" x="0" y="180">UNREGISTERED</text><text fill="#eeeeee" stroke="none" font-family="Arial" font-size="24px" font-style="normal" font-weight="normal" text-decoration="none" x="0" y="210">UNREGISTERED</text><text fill="#eeeeee" stroke="none" font-family="Arial" font-size="24px" font-style="normal" font-weight="normal" text-decoration="none" x="0" y="240">UNREGISTERED</text><text fill="#eeeeee" stroke="none" font-family="Arial" font-size="24px" font-style="normal" font-weight="normal" text-decoration="none" x="0" y="270">UNREGISTERED</text><text fill="#eeeeee" stroke="none" font-family="Arial" font-size="24px" font-style="normal" font-weight="normal" text-decoration="none" x="0" y="300">UNREGISTERED</text><text fill="#eeeeee" stroke="none" font-family="Arial" font-size="24px" font-style="normal" font-weight="normal" text-decoration="none" x="0" y="330">UNREGISTERED</text><text fill="#eeeeee" stroke="none" font-family="Arial" font-size="24px" font-style="normal" font-weight="normal" text-decoration="none" x="0" y="360">UNREGISTERED</text><text fill="#eeeeee" stroke="none" font-family="Arial" font-size="24px" font-style="normal" font-weight="normal" text-decoration="none" x="0" y="390">UNREGISTERED</text><text fill="#eeeeee" stroke="none" font-family="Arial" font-size="24px" font-style="normal" font-weight="normal" text-decoration="none" x="0" y="420">UNREGISTERED</text><text fill="#eeeeee" stroke="none" font-family="Arial" font-size="24px" font-style="normal" font-weight="normal" text-decoration="none" x="0" y="450">UNREGISTERED</text><text fill="#eeeeee" stroke="none" font-family="Arial" font-size="24px" font-style="normal" font-weight="normal" text-decoration="none" x="200" y="0">UNREGISTERED</text><text fill="#eeeeee" stroke="none" font-family="Arial" font-size="24px" font-style="normal" font-weight="normal" text-decoration="none" x="200" y="30">UNREGISTERED</text><text fill="#eeeeee" stroke="none" font-family="Arial" font-size="24px" font-style="normal" font-weight="normal" text-decoration="none" x="200" y="60">UNREGISTERED</text><text fill="#eeeeee" stroke="none" font-family="Arial" font-size="24px" font-style="normal" font-weight="normal" text-decoration="none" x="200" y="90">UNREGISTERED</text><text fill="#eeeeee" stroke="none" font-family="Arial" font-size="24px" font-style="normal" font-weight="normal" text-decoration="none" x="200" y="120">UNREGISTERED</text><text fill="#eeeeee" stroke="none" font-family="Arial" font-size="24px" font-style="normal" font-weight="normal" text-decoration="none" x="200" y="150">UNREGISTERED</text><text fill="#eeeeee" stroke="none" font-family="Arial" font-size="24px" font-style="normal" font-weight="normal" text-decoration="none" x="200" y="180">UNREGISTERED</text><text fill="#eeeeee" stroke="none" font-family="Arial" font-size="24px" font-style="normal" font-weight="normal" text-decoration="none" x="200" y="210">UNREGISTERED</text><text fill="#eeeeee" stroke="none" font-family="Arial" font-size="24px" font-style="normal" font-weight="normal" text-decoration="none" x="200" y="240">UNREGISTERED</text><text fill="#eeeeee" stroke="none" font-family="Arial" font-size="24px" font-style="normal" font-weight="normal" text-decoration="none" x="200" y="270">UNREGISTERED</text><text fill="#eeeeee" stroke="none" font-family="Arial" font-size="24px" font-style="normal" font-weight="normal" text-decoration="none" x="200" y="300">UNREGISTERED</text><text fill="#eeeeee" stroke="none" font-family="Arial" font-size="24px" font-style="normal" font-weight="normal" text-decoration="none" x="200" y="330">UNREGISTERED</text><text fill="#eeeeee" stroke="none" font-family="Arial" font-size="24px" font-style="normal" font-weight="normal" text-decoration="none" x="200" y="360">UNREGISTERED</text><text fill="#eeeeee" stroke="none" font-family="Arial" font-size="24px" font-style="normal" font-weight="normal" text-decoration="none" x="200" y="390">UNREGISTERED</text><text fill="#eeeeee" stroke="none" font-family="Arial" font-size="24px" font-style="normal" font-weight="normal" text-decoration="none" x="200" y="420">UNREGISTERED</text><text fill="#eeeeee" stroke="none" font-family="Arial" font-size="24px" font-style="normal" font-weight="normal" text-decoration="none" x="200" y="450">UNREGISTERED</text><g transform="translate(-318,-38) scale(1,1)"><rect fill="#C0C0C0" stroke="none" x="335" y="55" width="312" height="432" opacity="0.2"/></g><g transform="translate(-318,-38) scale(1,1)"><rect fill="#ffffff" stroke="none" x="328" y="48" width="312" height="432"/></g><g transform="translate(-318,-38) scale(1,1)"><path fill="none" stroke="#000000" d="M 328 48 L 640 48 L 640 480 L 328 480 L 328 48 Z Z" stroke-miterlimit="10"/></g><g transform="translate(-318,-38) scale(1,1)"><path fill="none" stroke="#000000" d="M 328 73 L 640 73" stroke-miterlimit="10"/></g><g transform="translate(-318,-38) scale(1,1)"><path fill="none" stroke="#000000" d="M 328 83 L 640 83" stroke-miterlimit="10"/></g><g transform="translate(-318,-38) scale(1,1)"><g><path fill="none" stroke="none"/><text fill="#000000" stroke="none" font-family="Arial" font-size="13px" font-style="normal" font-weight="bold" text-decoration="none" x="447.869140625" y="67.5">MSG_0x999</text></g></g><g transform="translate(-318,-38) scale(1,1)"><rect fill="#C0C0C0" stroke="none" x="343" y="95" width="296" height="57" opacity="0.2"/></g><g transform="translate(-318,-38) scale(1,1)"><rect fill="#ffffff" stroke="none" x="336" y="88" width="296" height="57"/></g><g transform="translate(-318,-38) scale(1,1)"><path fill="none" stroke="#000000" d="M 336 88 L 632 88 L 632 145 L 336 145 L 336 88 Z Z" stroke-miterlimit="10"/></g><g transform="translate(-318,-38) scale(1,1)"><path fill="none" stroke="#000000" d="M 336 126 L 632 126" stroke-miterlimit="10"/></g><g transform="translate(-318,-38) scale(1,1)"><path fill="none" stroke="#000000" d="M 336 136 L 632 136" stroke-miterlimit="10"/></g><g transform="translate(-318,-38) scale(1,1)"><g><path fill="none" stroke="none"/><text fill="#000000" stroke="none" font-family="Arial" font-size="13px" font-style="normal" font-weight="normal" text-decoration="none" x="459.786865234375" y="105.5">«signal»</text></g></g><g transform="translate(-318,-38) scale(1,1)"><g><path fill="none" stroke="none"/><text fill="#000000" stroke="none" font-family="Arial" font-size="13px" font-style="normal" font-weight="bold" text-decoration="none" x="444.98095703125" y="120.5">Msg_Counter</text></g></g><g transform="translate(-318,-38) scale(1,1)"><rect fill="#C0C0C0" stroke="none" x="343" y="159" width="296" height="57" opacity="0.2"/></g><g transform="translate(-318,-38) scale(1,1)"><rect fill="#ffffff" stroke="none" x="336" y="152" width="296" height="57"/></g><g transform="translate(-318,-38) scale(1,1)"><path fill="none" stroke="#000000" d="M 336 152 L 632 152 L 632 209 L 336 209 L 336 152 Z Z" stroke-miterlimit="10"/></g><g transform="translate(-318,-38) scale(1,1)"><path fill="none" stroke="#000000" d="M 336 190 L 632 190" stroke-miterlimit="10"/></g><g transform="translate(-318,-38) scale(1,1)"><path fill="none" stroke="#000000" d="M 336 200 L 632 200" stroke-miterlimit="10"/></g><g transform="translate(-318,-38) scale(1,1)"><g><path fill="none" stroke="none"/><text fill="#000000" stroke="none" font-family="Arial" font-size="13px" font-style="normal" font-weight="normal" text-decoration="none" x="459.786865234375" y="169.5">«signal»</text></g></g><g transform="translate(-318,-38) scale(1,1)"><g><path fill="none" stroke="none"/><text fill="#000000" stroke="none" font-family="Arial" font-size="13px" font-style="normal" font-weight="bold" text-decoration="none" x="457.266845703125" y="184.5">UseCase</text></g></g><g transform="translate(-318,-38) scale(1,1)"><rect fill="#C0C0C0" stroke="none" x="343" y="223" width="296" height="57" opacity="0.2"/></g><g transform="translate(-318,-38) scale(1,1)"><rect fill="#ffffff" stroke="none" x="336" y="216" width="296" height="57"/></g><g transform="translate(-318,-38) scale(1,1)"><path fill="none" stroke="#000000" d="M 336 216 L 632 216 L 632 273 L 336 273 L 336 216 Z Z" stroke-miterlimit="10"/></g><g transform="translate(-318,-38) scale(1,1)"><path fill="none" stroke="#000000" d="M 336 254 L 632 254" stroke-miterlimit="10"/></g><g transform="translate(-318,-38) scale(1,1)"><path fill="none" stroke="#000000" d="M 336 264 L 632 264" stroke-miterlimit="10"/></g><g transform="translate(-318,-38) scale(1,1)"><g><path fill="none" stroke="none"/><text fill="#000000" stroke="none" font-family="Arial" font-size="13px" font-style="normal" font-weight="normal" text-decoration="none" x="459.786865234375" y="233.5">«signal»</text></g></g><g transform="translate(-318,-38) scale(1,1)"><g><path fill="none" stroke="none"/><text fill="#000000" stroke="none" font-family="Arial" font-size="13px" font-style="normal" font-weight="bold" text-decoration="none" x="459.075927734375" y="248.5">AckField</text></g></g><g transform="translate(-318,-38) scale(1,1)"><rect fill="#C0C0C0" stroke="none" x="343" y="287" width="296" height="57" opacity="0.2"/></g><g transform="translate(-318,-38) scale(1,1)"><rect fill="#ffffff" stroke="none" x="336" y="280" width="296" height="57"/></g><g transform="translate(-318,-38) scale(1,1)"><path fill="none" stroke="#000000" d="M 336 280 L 632 280 L 632 337 L 336 337 L 336 280 Z Z" stroke-miterlimit="10"/></g><g transform="translate(-318,-38) scale(1,1)"><path fill="none" stroke="#000000" d="M 336 318 L 632 318" stroke-miterlimit="10"/></g><g transform="translate(-318,-38) scale(1,1)"><path fill="none" stroke="#000000" d="M 336 328 L 632 328" stroke-miterlimit="10"/></g><g transform="translate(-318,-38) scale(1,1)"><g><path fill="none" stroke="none"/><text fill="#000000" stroke="none" font-family="Arial" font-size="13px" font-style="normal" font-weight="normal" text-decoration="none" x="459.786865234375" y="297.5">«signal»</text></g></g><g transform="translate(-318,-38) scale(1,1)"><g><path fill="none" stroke="none"/><text fill="#000000" stroke="none" font-family="Arial" font-size="13px" font-style="normal" font-weight="bold" text-decoration="none" x="412.833251953125" y="312.5">Status Field - Composite</text></g></g><g transform="translate(-318,-38) scale(1,1)"><rect fill="#C0C0C0" stroke="none" x="343" y="351" width="296" height="57" opacity="0.2"/></g><g transform="translate(-318,-38) scale(1,1)"><rect fill="#ffffff" stroke="none" x="336" y="344" width="296" height="57"/></g><g transform="translate(-318,-38) scale(1,1)"><path fill="none" stroke="#000000" d="M 336 344 L 632 344 L 632 401 L 336 401 L 336 344 Z Z" stroke-miterlimit="10"/></g><g transform="translate(-318,-38) scale(1,1)"><path fill="none" stroke="#000000" d="M 336 382 L 632 382" stroke-miterlimit="10"/></g><g transform="translate(-318,-38) scale(1,1)"><path fill="none" stroke="#000000" d="M 336 392 L 632 392" stroke-miterlimit="10"/></g><g transform="translate(-318,-38) scale(1,1)"><g><path fill="none" stroke="none"/><text fill="#000000" stroke="none" font-family="Arial" font-size="13px" font-style="normal" font-weight="normal" text-decoration="none" x="459.786865234375" y="361.5">«signal»</text></g></g><g transform="translate(-318,-38) scale(1,1)"><g><path fill="none" stroke="none"/><text fill="#000000" stroke="none" font-family="Arial" font-size="13px" font-style="normal" font-weight="bold" text-decoration="none" x="471.720458984375" y="376.5">Mux</text></g></g><g transform="translate(-318,-38) scale(1,1)"><rect fill="#C0C0C0" stroke="none" x="343" y="415" width="296" height="57" opacity="0.2"/></g><g transform="translate(-318,-38) scale(1,1)"><rect fill="#ffffff" stroke="none" x="336" y="408" width="296" height="57"/></g><g transform="translate(-318,-38) scale(1,1)"><path fill="none" stroke="#000000" d="M 336 408 L 632 408 L 632 465 L 336 465 L 336 408 Z Z" stroke-miterlimit="10"/></g><g transform="translate(-318,-38) scale(1,1)"><path fill="none" stroke="#000000" d="M 336 446 L 632 446" stroke-miterlimit="10"/></g><g transform="translate(-318,-38) scale(1,1)"><path fill="none" stroke="#000000" d="M 336 456 L 632 456" stroke-miterlimit="10"/></g><g transform="translate(-318,-38) scale(1,1)"><g><path fill="none" stroke="none"/><text fill="#000000" stroke="none" font-family="Arial" font-size="13px" font-style="normal" font-weight="normal" text-decoration="none" x="459.786865234375" y="425.5">«signal»</text></g></g><g transform="translate(-318,-38) scale(1,1)"><g><path fill="none" stroke="none"/><text fill="#000000" stroke="none" font-family="Arial" font-size="13px" font-style="normal" font-weight="bold" text-decoration="none" x="405.965087890625" y="440.5">Action Signals - Composite</text></g></g></g></svg>