<svg version="1.1" xmlns="http://www.w3.org/2000/svg" xmlns:xlink="http://www.w3.org/1999/xlink" width="812" height="516"><defs/><g><text fill="#eeeeee" stroke="none" font-family="Arial" font-size="24px" font-style="normal" font-weight="normal" text-decoration="none" x="0" y="0">UNREGISTERED</text><text fill="#eeeeee" stroke="none" font-family="Arial" font-size="24px" font-style="normal" font-weight="normal" text-decoration="none" x="0" y="30">UNREGISTERED</text><text fill="#eeeeee" stroke="none" font-family="Arial" font-size="24px" font-style="normal" font-weight="normal" text-decoration="none" x="0" y="60">UNREGISTERED</text><text fill="#eeeeee" stroke="none" font-family="Arial" font-size="24px" font-style="normal" font-weight="normal" text-decoration="none" x="0" y="90">UNREGISTERED</text><text fill="#eeeeee" stroke="none" font-family="Arial" font-size="24px" font-style="normal" font-weight="normal" text-decoration="none" x="0" y="120">UNREGISTERED</text><text fill="#eeeeee" stroke="none" font-family="Arial" font-size="24px" font-style="normal" font-weight="normal" text-decoration="none" x="0" y="150">UNREGISTERED</text><text fill="#eeeeee" stroke="none" font-family="Arial" font-size="24px" font-style="normal" font-weight="normal" text-decoration="none" x="0" y="180">UNREGISTERED</text><text fill="#eeeeee" stroke="none" font-family="Arial" font-size="24px" font-style="normal" font-weight="normal" text-decoration="none" x="0" y="210">UNREGISTERED</text><text fill="#eeeeee" stroke="none" font-family="Arial" font-size="24px" font-style="normal" font-weight="normal" text-decoration="none" x="0" y="240">UNREGISTERED</text><text fill="#eeeeee" stroke="none" font-family="Arial" font-size="24px" font-style="normal" font-weight="normal" text-decoration="none" x="0" y="270">UNREGISTERED</text><text fill="#eeeeee" stroke="none" font-family="Arial" font-size="24px" font-style="normal" font-weight="normal" text-decoration="none" x="0" y="300">UNREGISTERED</text><text fill="#eeeeee" stroke="none" font-family="Arial" font-size="24px" font-style="normal" font-weight="normal" text-decoration="none" x="0" y="330">UNREGISTERED</text><text fill="#eeeeee" stroke="none" font-family="Arial" font-size="24px" font-style="normal" font-weight="normal" text-decoration="none" x="0" y="360">UNREGISTERED</text><text fill="#eeeeee" stroke="none" font-family="Arial" font-size="24px" font-style="normal" font-weight="normal" text-decoration="none" x="0" y="390">UNREGISTERED</text><text fill="#eeeeee" stroke="none" font-family="Arial" font-size="24px" font-style="normal" font-weight="normal" text-decoration="none" x="0" y="420">UNREGISTERED</text><text fill="#eeeeee" stroke="none" font-family="Arial" font-size="24px" font-style="normal" font-weight="normal" text-decoration="none" x="0" y="450">UNREGISTERED</text><text fill="#eeeeee" stroke="none" font-family="Arial" font-size="24px" font-style="normal" font-weight="normal" text-decoration="none" x="0" y="480">UNREGISTERED</text><text fill="#eeeeee" stroke="none" font-family="Arial" font-size="24px" font-style="normal" font-weight="normal" text-decoration="none" x="0" y="510">UNREGISTERED</text><text fill="#eeeeee" stroke="none" font-family="Arial" font-size="24px" font-style="normal" font-weight="normal" text-decoration="none" x="200" y="0">UNREGISTERED</text><text fill="#eeeeee" stroke="none" font-family="Arial" font-size="24px" font-style="normal" font-weight="normal" text-decoration="none" x="200" y="30">UNREGISTERED</text><text fill="#eeeeee" stroke="none" font-family="Arial" font-size="24px" font-style="normal" font-weight="normal" text-decoration="none" x="200" y="60">UNREGISTERED</text><text fill="#eeeeee" stroke="none" font-family="Arial" font-size="24px" font-style="normal" font-weight="normal" text-decoration="none" x="200" y="90">UNREGISTERED</text><text fill="#eeeeee" stroke="none" font-family="Arial" font-size="24px" font-style="normal" font-weight="normal" text-decoration="none" x="200" y="120">UNREGISTERED</text><text fill="#eeeeee" stroke="none" font-family="Arial" font-size="24px" font-style="normal" font-weight="normal" text-decoration="none" x="200" y="150">UNREGISTERED</text><text fill="#eeeeee" stroke="none" font-family="Arial" font-size="24px" font-style="normal" font-weight="normal" text-decoration="none" x="200" y="180">UNREGISTERED</text><text fill="#eeeeee" stroke="none" font-family="Arial" font-size="24px" font-style="normal" font-weight="normal" text-decoration="none" x="200" y="210">UNREGISTERED</text><text fill="#eeeeee" stroke="none" font-family="Arial" font-size="24px" font-style="normal" font-weight="normal" text-decoration="none" x="200" y="240">UNREGISTERED</text><text fill="#eeeeee" stroke="none" font-family="Arial" font-size="24px" font-style="normal" font-weight="normal" text-decoration="none" x="200" y="270">UNREGISTERED</text><text fill="#eeeeee" stroke="none" font-family="Arial" font-size="24px" font-style="normal" font-weight="normal" text-decoration="none" x="200" y="300">UNREGISTERED</text><text fill="#eeeeee" stroke="none" font-family="Arial" font-size="24px" font-style="normal" font-weight="normal" text-decoration="none" x="200" y="330">UNREGISTERED</text><text fill="#eeeeee" stroke="none" font-family="Arial" font-size="24px" font-style="normal" font-weight="normal" text-decoration="none" x="200" y="360">UNREGISTERED</text><text fill="#eeeeee" stroke="none" font-family="Arial" font-size="24px" font-style="normal" font-weight="normal" text-decoration="none" x="200" y="390">UNREGISTERED</text><text fill="#eeeeee" stroke="none" font-family="Arial" font-size="24px" font-style="normal" font-weight="normal" text-decoration="none" x="200" y="420">UNREGISTERED</text><text fill="#eeeeee" stroke="none" font-family="Arial" font-size="24px" font-style="normal" font-weight="normal" text-decoration="none" x="200" y="450">UNREGISTERED</text><text fill="#eeeeee" stroke="none" font-family="Arial" font-size="24px" font-style="normal" font-weight="normal" text-decoration="none" x="200" y="480">UNREGISTERED</text><text fill="#eeeeee" stroke="none" font-family="Arial" font-size="24px" font-style="normal" font-weight="normal" text-decoration="none" x="200" y="510">UNREGISTERED</text><text fill="#eeeeee" stroke="none" font-family="Arial" font-size="24px" font-style="normal" font-weight="normal" text-decoration="none" x="400" y="0">UNREGISTERED</text><text fill="#eeeeee" stroke="none" font-family="Arial" font-size="24px" font-style="normal" font-weight="normal" text-decoration="none" x="400" y="30">UNREGISTERED</text><text fill="#eeeeee" stroke="none" font-family="Arial" font-size="24px" font-style="normal" font-weight="normal" text-decoration="none" x="400" y="60">UNREGISTERED</text><text fill="#eeeeee" stroke="none" font-family="Arial" font-size="24px" font-style="normal" font-weight="normal" text-decoration="none" x="400" y="90">UNREGISTERED</text><text fill="#eeeeee" stroke="none" font-family="Arial" font-size="24px" font-style="normal" font-weight="normal" text-decoration="none" x="400" y="120">UNREGISTERED</text><text fill="#eeeeee" stroke="none" font-family="Arial" font-size="24px" font-style="normal" font-weight="normal" text-decoration="none" x="400" y="150">UNREGISTERED</text><text fill="#eeeeee" stroke="none" font-family="Arial" font-size="24px" font-style="normal" font-weight="normal" text-decoration="none" x="400" y="180">UNREGISTERED</text><text fill="#eeeeee" stroke="none" font-family="Arial" font-size="24px" font-style="normal" font-weight="normal" text-decoration="none" x="400" y="210">UNREGISTERED</text><text fill="#eeeeee" stroke="none" font-family="Arial" font-size="24px" font-style="normal" font-weight="normal" text-decoration="none" x="400" y="240">UNREGISTERED</text><text fill="#eeeeee" stroke="none" font-family="Arial" font-size="24px" font-style="normal" font-weight="normal" text-decoration="none" x="400" y="270">UNREGISTERED</text><text fill="#eeeeee" stroke="none" font-family="Arial" font-size="24px" font-style="normal" font-weight="normal" text-decoration="none" x="400" y="300">UNREGISTERED</text><text fill="#eeeeee" stroke="none" font-family="Arial" font-size="24px" font-style="normal" font-weight="normal" text-decoration="none" x="400" y="330">UNREGISTERED</text><text fill="#eeeeee" stroke="none" font-family="Arial" font-size="24px" font-style="normal" font-weight="normal" text-decoration="none" x="400" y="360">UNREGISTERED</text><text fill="#eeeeee" stroke="none" font-family="Arial" font-size="24px" font-style="normal" font-weight="normal" text-decoration="none" x="400" y="390">UNREGISTERED</text><text fill="#eeeeee" stroke="none" font-family="Arial" font-size="24px" font-style="normal" font-weight="normal" text-decoration="none" x="400" y="420">UNREGISTERED</text><text fill="#eeeeee" stroke="none" font-family="Arial" font-size="24px" font-style="normal" font-weight="normal" text-decoration="none" x="400" y="450">UNREGISTERED</text><text fill="#eeeeee" stroke="none" font-family="Arial" font-size="24px" font-style="normal" font-weight="normal" text-decoration="none" x="400" y="480">UNREGISTERED</text><text fill="#eeeeee" stroke="none" font-family="Arial" font-size="24px" font-style="normal" font-weight="normal" text-decoration="none" x="400" y="510">UNREGISTERED</text><text fill="#eeeeee" stroke="none" font-family="Arial" font-size="24px" font-style="normal" font-weight="normal" text-decoration="none" x="600" y="0">UNREGISTERED</text><text fill="#eeeeee" stroke="none" font-family="Arial" font-size="24px" font-style="normal" font-weight="normal" text-decoration="none" x="600" y="30">UNREGISTERED</text><text fill="#eeeeee" stroke="none" font-family="Arial" font-size="24px" font-style="normal" font-weight="normal" text-decoration="none" x="600" y="60">UNREGISTERED</text><text fill="#eeeeee" stroke="none" font-family="Arial" font-size="24px" font-style="normal" font-weight="normal" text-decoration="none" x="600" y="90">UNREGISTERED</text><text fill="#eeeeee" stroke="none" font-family="Arial" font-size="24px" font-style="normal" font-weight="normal" text-decoration="none" x="600" y="120">UNREGISTERED</text><text fill="#eeeeee" stroke="none" font-family="Arial" font-size="24px" font-style="normal" font-weight="normal" text-decoration="none" x="600" y="150">UNREGISTERED</text><text fill="#eeeeee" stroke="none" font-family="Arial" font-size="24px" font-style="normal" font-weight="normal" text-decoration="none" x="600" y="180">UNREGISTERED</text><text fill="#eeeeee" stroke="none" font-family="Arial" font-size="24px" font-style="normal" font-weight="normal" text-decoration="none" x="600" y="210">UNREGISTERED</text><text fill="#eeeeee" stroke="none" font-family="Arial" font-size="24px" font-style="normal" font-weight="normal" text-decoration="none" x="600" y="240">UNREGISTERED</text><text fill="#eeeeee" stroke="none" font-family="Arial" font-size="24px" font-style="normal" font-weight="normal" text-decoration="none" x="600" y="270">UNREGISTERED</text><text fill="#eeeeee" stroke="none" font-family="Arial" font-size="24px" font-style="normal" font-weight="normal" text-decoration="none" x="600" y="300">UNREGISTERED</text><text fill="#eeeeee" stroke="none" font-family="Arial" font-size="24px" font-style="normal" font-weight="normal" text-decoration="none" x="600" y="330">UNREGISTERED</text><text fill="#eeeeee" stroke="none" font-family="Arial" font-size="24px" font-style="normal" font-weight="normal" text-decoration="none" x="600" y="360">UNREGISTERED</text><text fill="#eeeeee" stroke="none" font-family="Arial" font-size="24px" font-style="normal" font-weight="normal" text-decoration="none" x="600" y="390">UNREGISTERED</text><text fill="#eeeeee" stroke="none" font-family="Arial" font-size="24px" font-style="normal" font-weight="normal" text-decoration="none" x="600" y="420">UNREGISTERED</text><text fill="#eeeeee" stroke="none" font-family="Arial" font-size="24px" font-style="normal" font-weight="normal" text-decoration="none" x="600" y="450">UNREGISTERED</text><text fill="#eeeeee" stroke="none" font-family="Arial" font-size="24px" font-style="normal" font-weight="normal" text-decoration="none" x="600" y="480">UNREGISTERED</text><text fill="#eeeeee" stroke="none" font-family="Arial" font-size="24px" font-style="normal" font-weight="normal" text-decoration="none" x="600" y="510">UNREGISTERED</text><text fill="#eeeeee" stroke="none" font-family="Arial" font-size="24px" font-style="normal" font-weight="normal" text-decoration="none" x="800" y="0">UNREGISTERED</text><text fill="#eeeeee" stroke="none" font-family="Arial" font-size="24px" font-style="normal" font-weight="normal" text-decoration="none" x="800" y="30">UNREGISTERED</text><text fill="#eeeeee" stroke="none" font-family="Arial" font-size="24px" font-style="normal" font-weight="normal" text-decoration="none" x="800" y="60">UNREGISTERED</text><text fill="#eeeeee" stroke="none" font-family="Arial" font-size="24px" font-style="normal" font-weight="normal" text-decoration="none" x="800" y="90">UNREGISTERED</text><text fill="#eeeeee" stroke="none" font-family="Arial" font-size="24px" font-style="normal" font-weight="normal" text-decoration="none" x="800" y="120">UNREGISTERED</text><text fill="#eeeeee" stroke="none" font-family="Arial" font-size="24px" font-style="normal" font-weight="normal" text-decoration="none" x="800" y="150">UNREGISTERED</text><text fill="#eeeeee" stroke="none" font-family="Arial" font-size="24px" font-style="normal" font-weight="normal" text-decoration="none" x="800" y="180">UNREGISTERED</text><text fill="#eeeeee" stroke="none" font-family="Arial" font-size="24px" font-style="normal" font-weight="normal" text-decoration="none" x="800" y="210">UNREGISTERED</text><text fill="#eeeeee" stroke="none" font-family="Arial" font-size="24px" font-style="normal" font-weight="normal" text-decoration="none" x="800" y="240">UNREGISTERED</text><text fill="#eeeeee" stroke="none" font-family="Arial" font-size="24px" font-style="normal" font-weight="normal" text-decoration="none" x="800" y="270">UNREGISTERED</text><text fill="#eeeeee" stroke="none" font-family="Arial" font-size="24px" font-style="normal" font-weight="normal" text-decoration="none" x="800" y="300">UNREGISTERED</text><text fill="#eeeeee" stroke="none" font-family="Arial" font-size="24px" font-style="normal" font-weight="normal" text-decoration="none" x="800" y="330">UNREGISTERED</text><text fill="#eeeeee" stroke="none" font-family="Arial" font-size="24px" font-style="normal" font-weight="normal" text-decoration="none" x="800" y="360">UNREGISTERED</text><text fill="#eeeeee" stroke="none" font-family="Arial" font-size="24px" font-style="normal" font-weight="normal" text-decoration="none" x="800" y="390">UNREGISTERED</text><text fill="#eeeeee" stroke="none" font-family="Arial" font-size="24px" font-style="normal" font-weight="normal" text-decoration="none" x="800" y="420">UNREGISTERED</text><text fill="#eeeeee" stroke="none" font-family="Arial" font-size="24px" font-style="normal" font-weight="normal" text-decoration="none" x="800" y="450">UNREGISTERED</text><text fill="#eeeeee" stroke="none" font-family="Arial" font-size="24px" font-style="normal" font-weight="normal" text-decoration="none" x="800" y="480">UNREGISTERED</text><text fill="#eeeeee" stroke="none" font-family="Arial" font-size="24px" font-style="normal" font-weight="normal" text-decoration="none" x="800" y="510">UNREGISTERED</text><g transform="translate(-158,-54) scale(1,1)"><rect fill="#ffffff" stroke="none" x="321" y="181" width="14" height="14"/></g><g transform="translate(-158,-54) scale(1,1)"><path fill="none" stroke="#000000" d="M 321 181 L 335 181 L 335 195 L 321 195 L 321 181 Z Z" stroke-miterlimit="10"/></g><g transform="translate(-158,-54) scale(1,1)"><g><path fill="none" stroke="none"/><text fill="#000000" stroke="none" font-family="Arial" font-size="13px" font-style="normal" font-weight="normal" text-decoration="none" x="277.222900390625" y="179">CAN_PORT</text></g></g><g transform="translate(-158,-54) scale(1,1)"><rect fill="#ffffff" stroke="none" x="569" y="223" width="14" height="14"/></g><g transform="translate(-158,-54) scale(1,1)"><path fill="none" stroke="#000000" d="M 569 223 L 583 223 L 583 237 L 569 237 L 569 223 Z Z" stroke-miterlimit="10"/></g><g transform="translate(-158,-54) scale(1,1)"><g><path fill="none" stroke="none"/><text fill="#000000" stroke="none" font-family="Arial" font-size="13px" font-style="normal" font-weight="normal" text-decoration="none" x="525.222900390625" y="221">CAN_PORT</text></g></g><g transform="translate(-158,-54) scale(1,1)"><rect fill="#ffffff" stroke="none" x="488" y="408" width="14" height="14"/></g><g transform="translate(-158,-54) scale(1,1)"><path fill="none" stroke="#000000" d="M 488 408 L 502 408 L 502 422 L 488 422 L 488 408 Z Z" stroke-miterlimit="10"/></g><g transform="translate(-158,-54) scale(1,1)"><g><path fill="none" stroke="none"/><text fill="#000000" stroke="none" font-family="Arial" font-size="13px" font-style="normal" font-weight="normal" text-decoration="none" x="444.222900390625" y="406">CAN_PORT</text></g></g><g transform="translate(-158,-54) scale(1,1)"><rect fill="#C0C0C0" stroke="none" x="175" y="71" width="316.8" height="15" opacity="0.2"/></g><g transform="translate(-158,-54) scale(1,1)"><rect fill="#C0C0C0" stroke="none" x="175" y="85" width="792" height="482" opacity="0.2"/></g><g transform="translate(-158,-54) scale(1,1)"><rect fill="#ffffff" stroke="none" x="168" y="79" width="792" height="481"/></g><g transform="translate(-158,-54) scale(1,1)"><path fill="none" stroke="#000000" d="M 168 79 L 960 79 L 960 560 L 168 560 L 168 79 Z Z" stroke-miterlimit="10"/></g><g transform="translate(-158,-54) scale(1,1)"><rect fill="#ffffff" stroke="none" x="168" y="64" width="316.8" height="15"/></g><g transform="translate(-158,-54) scale(1,1)"><path fill="none" stroke="#000000" d="M 168 64 L 484.8 64 L 484.8 79 L 168 79 L 168 64 Z Z" stroke-miterlimit="10"/></g><g transform="translate(-158,-54) scale(1,1)"><rect fill="#ffffff" stroke="none" x="168" y="78" width="792" height="482"/></g><g transform="translate(-158,-54) scale(1,1)"><path fill="none" stroke="#000000" d="M 168 78 L 960 78 L 960 560 L 168 560 L 168 78 Z Z" stroke-miterlimit="10"/></g><g transform="translate(-158,-54) scale(1,1)"><path fill="none" stroke="#000000" d="M 475.8 67 L 469.8 74 L 481.8 74 L 475.8 67" stroke-miterlimit="10"/></g><g transform="translate(-158,-54) scale(1,1)"><g><path fill="none" stroke="none"/><text fill="#000000" stroke="none" font-family="Arial" font-size="13px" font-style="normal" font-weight="bold" text-decoration="none" x="499.333251953125" y="98.5">Communication Model</text></g></g><g transform="translate(-158,-54) scale(1,1)"><rect fill="#C0C0C0" stroke="none" x="207" y="135" width="51.19999999999999" height="15" opacity="0.2"/></g><g transform="translate(-158,-54) scale(1,1)"><rect fill="#C0C0C0" stroke="none" x="207" y="149" width="128" height="130" opacity="0.2"/></g><g transform="translate(-158,-54) scale(1,1)"><rect fill="#ffffff" stroke="none" x="200" y="143" width="128" height="129"/></g><g transform="translate(-158,-54) scale(1,1)"><path fill="none" stroke="#000000" d="M 200 143 L 328 143 L 328 272 L 200 272 L 200 143 Z Z" stroke-miterlimit="10"/></g><g transform="translate(-158,-54) scale(1,1)"><rect fill="#ffffff" stroke="none" x="200" y="128" width="51.19999999999999" height="15"/></g><g transform="translate(-158,-54) scale(1,1)"><path fill="none" stroke="#000000" d="M 200 128 L 251.2 128 L 251.2 143 L 200 143 L 200 128 Z Z" stroke-miterlimit="10"/></g><g transform="translate(-158,-54) scale(1,1)"><rect fill="#ffffff" stroke="none" x="200" y="142" width="128" height="130"/></g><g transform="translate(-158,-54) scale(1,1)"><path fill="none" stroke="#000000" d="M 200 142 L 328 142 L 328 272 L 200 272 L 200 142 Z Z" stroke-miterlimit="10"/></g><g transform="translate(-158,-54) scale(1,1)"><path fill="none" stroke="#000000" d="M 243.2 131 L 243.2 135" stroke-miterlimit="10"/></g><g transform="translate(-158,-54) scale(1,1)"><path fill="none" stroke="#000000" d="M 240.2 139 L 240.2 135 L 246.2 135" stroke-miterlimit="10"/></g><g transform="translate(-158,-54) scale(1,1)"><path fill="none" stroke="#000000" d="M 246.2 139 L 246.2 135 L 240.2 135" stroke-miterlimit="10"/></g><g transform="translate(-158,-54) scale(1,1)"><g><path fill="none" stroke="none"/><text fill="#000000" stroke="none" font-family="Arial" font-size="13px" font-style="normal" font-weight="bold" text-decoration="none" x="245.2236328125" y="162.5">DCDC</text></g></g><g transform="translate(-158,-54) scale(1,1)"><rect fill="#C0C0C0" stroke="none" x="583" y="135" width="54.39999999999998" height="15" opacity="0.2"/></g><g transform="translate(-158,-54) scale(1,1)"><rect fill="#C0C0C0" stroke="none" x="583" y="149" width="136" height="122" opacity="0.2"/></g><g transform="translate(-158,-54) scale(1,1)"><rect fill="#ffffff" stroke="none" x="576" y="143" width="136" height="121"/></g><g transform="translate(-158,-54) scale(1,1)"><path fill="none" stroke="#000000" d="M 576 143 L 712 143 L 712 264 L 576 264 L 576 143 Z Z" stroke-miterlimit="10"/></g><g transform="translate(-158,-54) scale(1,1)"><rect fill="#ffffff" stroke="none" x="576" y="128" width="54.39999999999998" height="15"/></g><g transform="translate(-158,-54) scale(1,1)"><path fill="none" stroke="#000000" d="M 576 128 L 630.4 128 L 630.4 143 L 576 143 L 576 128 Z Z" stroke-miterlimit="10"/></g><g transform="translate(-158,-54) scale(1,1)"><rect fill="#ffffff" stroke="none" x="576" y="142" width="136" height="122"/></g><g transform="translate(-158,-54) scale(1,1)"><path fill="none" stroke="#000000" d="M 576 142 L 712 142 L 712 264 L 576 264 L 576 142 Z Z" stroke-miterlimit="10"/></g><g transform="translate(-158,-54) scale(1,1)"><path fill="none" stroke="#000000" d="M 622.4 131 L 622.4 135" stroke-miterlimit="10"/></g><g transform="translate(-158,-54) scale(1,1)"><path fill="none" stroke="#000000" d="M 619.4 139 L 619.4 135 L 625.4 135" stroke-miterlimit="10"/></g><g transform="translate(-158,-54) scale(1,1)"><path fill="none" stroke="#000000" d="M 625.4 139 L 625.4 135 L 619.4 135" stroke-miterlimit="10"/></g><g transform="translate(-158,-54) scale(1,1)"><g><path fill="none" stroke="none"/><text fill="#000000" stroke="none" font-family="Arial" font-size="13px" font-style="normal" font-weight="bold" text-decoration="none" x="622.8115234375" y="162.5">STARK</text></g></g><g transform="translate(-158,-54) scale(1,1)"><rect fill="#C0C0C0" stroke="none" x="327" y="351" width="70" height="15" opacity="0.2"/></g><g transform="translate(-158,-54) scale(1,1)"><rect fill="#C0C0C0" stroke="none" x="327" y="365" width="175" height="129" opacity="0.2"/></g><g transform="translate(-158,-54) scale(1,1)"><rect fill="#ffffff" stroke="none" x="320" y="359" width="175" height="128"/></g><g transform="translate(-158,-54) scale(1,1)"><path fill="none" stroke="#000000" d="M 320 359 L 495 359 L 495 487 L 320 487 L 320 359 Z Z" stroke-miterlimit="10"/></g><g transform="translate(-158,-54) scale(1,1)"><rect fill="#ffffff" stroke="none" x="320" y="344" width="70" height="15"/></g><g transform="translate(-158,-54) scale(1,1)"><path fill="none" stroke="#000000" d="M 320 344 L 390 344 L 390 359 L 320 359 L 320 344 Z Z" stroke-miterlimit="10"/></g><g transform="translate(-158,-54) scale(1,1)"><rect fill="#ffffff" stroke="none" x="320" y="358" width="175" height="129"/></g><g transform="translate(-158,-54) scale(1,1)"><path fill="none" stroke="#000000" d="M 320 358 L 495 358 L 495 487 L 320 487 L 320 358 Z Z" stroke-miterlimit="10"/></g><g transform="translate(-158,-54) scale(1,1)"><path fill="none" stroke="#000000" d="M 382 347 L 382 351" stroke-miterlimit="10"/></g><g transform="translate(-158,-54) scale(1,1)"><path fill="none" stroke="#000000" d="M 379 355 L 379 351 L 385 351" stroke-miterlimit="10"/></g><g transform="translate(-158,-54) scale(1,1)"><path fill="none" stroke="#000000" d="M 385 355 L 385 351 L 379 351" stroke-miterlimit="10"/></g><g transform="translate(-158,-54) scale(1,1)"><g><path fill="none" stroke="none"/><text fill="#000000" stroke="none" font-family="Arial" font-size="13px" font-style="normal" font-weight="bold" text-decoration="none" x="398.11181640625" y="378.5">CU</text></g></g><g transform="translate(-158,-54) scale(1,1)"><rect fill="#ffffff" stroke="none" x="488" y="448" width="14" height="14"/></g><g transform="translate(-158,-54) scale(1,1)"><path fill="none" stroke="#000000" d="M 488 448 L 502 448 L 502 462 L 488 462 L 488 448 Z Z" stroke-miterlimit="10"/></g><g transform="translate(-158,-54) scale(1,1)"><g><path fill="none" stroke="none"/><text fill="#000000" stroke="none" font-family="Arial" font-size="13px" font-style="normal" font-weight="normal" text-decoration="none" x="444.222900390625" y="446">CAN_PORT</text></g></g><g transform="translate(-158,-54) scale(1,1)"><rect fill="#ffffff" stroke="none" x="569" y="237" width="14" height="14"/></g><g transform="translate(-158,-54) scale(1,1)"><path fill="none" stroke="#000000" d="M 569 237 L 583 237 L 583 251 L 569 251 L 569 237 Z Z" stroke-miterlimit="10"/></g><g transform="translate(-158,-54) scale(1,1)"><g><path fill="none" stroke="none"/><text fill="#000000" stroke="none" font-family="Arial" font-size="13px" font-style="normal" font-weight="normal" text-decoration="none" x="525.222900390625" y="235">CAN_PORT</text></g></g><g transform="translate(-158,-54) scale(1,1)"><rect fill="#ffffff" stroke="none" x="305" y="265" width="14" height="14"/></g><g transform="translate(-158,-54) scale(1,1)"><path fill="none" stroke="#000000" d="M 305 265 L 319 265 L 319 279 L 305 279 L 305 265 Z Z" stroke-miterlimit="10"/></g><g transform="translate(-158,-54) scale(1,1)"><g><path fill="none" stroke="none"/><text fill="#000000" stroke="none" font-family="Arial" font-size="13px" font-style="normal" font-weight="normal" text-decoration="none" x="261.222900390625" y="263">CAN_PORT</text></g></g><g transform="translate(-158,-54) scale(1,1)"><path fill="none" stroke="#000000" d="M 305 280 L 240 352 L 296 456 L 487 455" stroke-miterlimit="10"/></g><g transform="translate(-158,-54) scale(1,1)"><g><path fill="none" stroke="none"/><text fill="#000000" stroke="none" font-family="Arial" font-size="13px" font-style="normal" font-weight="normal" text-decoration="none" x="215.5" y="406.5">+CAN_STRAT</text></g></g><g transform="translate(-158,-54) scale(1,1)"><g><path fill="none" stroke="none"/><text fill="#000000" stroke="none" font-family="Arial" font-size="13px" font-style="normal" font-weight="normal" text-decoration="none" x="206.5" y="387.5">+MSG_ID = 0x999</text></g></g><g transform="translate(-158,-54) scale(1,1)"><path fill="none" stroke="#000000" d="M 503 450 L 624 368 L 579 252" stroke-miterlimit="10"/></g><g transform="translate(-158,-54) scale(1,1)"><g><path fill="none" stroke="none"/><text fill="#000000" stroke="none" font-family="Arial" font-size="13px" font-style="normal" font-weight="normal" text-decoration="none" x="568.5" y="379.5">+CAN_STRAT</text></g></g><g transform="translate(-158,-54) scale(1,1)"><g><path fill="none" stroke="none"/><text fill="#000000" stroke="none" font-family="Arial" font-size="13px" font-style="normal" font-weight="normal" text-decoration="none" x="551.5" y="396.5">+MSG_ID = 0x999</text></g></g><g transform="translate(-158,-54) scale(1,1)"><path fill="none" stroke="#000000" d="M 568 244 L 440 248 L 320 271" stroke-miterlimit="10"/></g><g transform="translate(-158,-54) scale(1,1)"><g><path fill="none" stroke="none"/><text fill="#000000" stroke="none" font-family="Arial" font-size="13px" font-style="normal" font-weight="normal" text-decoration="none" x="393.5" y="235.5">+CAN_STRAT</text></g></g><g transform="translate(-158,-54) scale(1,1)"><g><path fill="none" stroke="none"/><text fill="#000000" stroke="none" font-family="Arial" font-size="13px" font-style="normal" font-weight="normal" text-decoration="none" x="391.5" y="211.5">+MSG_ID = 0x999</text></g></g></g></svg>