<svg version="1.1" xmlns="http://www.w3.org/2000/svg" xmlns:xlink="http://www.w3.org/1999/xlink" width="812" height="516"><defs/><g><text fill="#eeeeee" stroke="none" font-family="Arial" font-size="24px" font-style="normal" font-weight="normal" text-decoration="none" x="0" y="0">UNREGISTERED</text><text fill="#eeeeee" stroke="none" font-family="Arial" font-size="24px" font-style="normal" font-weight="normal" text-decoration="none" x="0" y="30">UNREGISTERED</text><text fill="#eeeeee" stroke="none" font-family="Arial" font-size="24px" font-style="normal" font-weight="normal" text-decoration="none" x="0" y="60">UNREGISTERED</text><text fill="#eeeeee" stroke="none" font-family="Arial" font-size="24px" font-style="normal" font-weight="normal" text-decoration="none" x="0" y="90">UNREGISTERED</text><text fill="#eeeeee" stroke="none" font-family="Arial" font-size="24px" font-style="normal" font-weight="normal" text-decoration="none" x="0" y="120">UNREGISTERED</text><text fill="#eeeeee" stroke="none" font-family="Arial" font-size="24px" font-style="normal" font-weight="normal" text-decoration="none" x="0" y="150">UNREGISTERED</text><text fill="#eeeeee" stroke="none" font-family="Arial" font-size="24px" font-style="normal" font-weight="normal" text-decoration="none" x="0" y="180">UNREGISTERED</text><text fill="#eeeeee" stroke="none" font-family="Arial" font-size="24px" font-style="normal" font-weight="normal" text-decoration="none" x="0" y="210">UNREGISTERED</text><text fill="#eeeeee" stroke="none" font-family="Arial" font-size="24px" font-style="normal" font-weight="normal" text-decoration="none" x="0" y="240">UNREGISTERED</text><text fill="#eeeeee" stroke="none" font-family="Arial" font-size="24px" font-style="normal" font-weight="normal" text-decoration="none" x="0" y="270">UNREGISTERED</text><text fill="#eeeeee" stroke="none" font-family="Arial" font-size="24px" font-style="normal" font-weight="normal" text-decoration="none" x="0" y="300">UNREGISTERED</text><text fill="#eeeeee" stroke="none" font-family="Arial" font-size="24px" font-style="normal" font-weight="normal" text-decoration="none" x="0" y="330">UNREGISTERED</text><text fill="#eeeeee" stroke="none" font-family="Arial" font-size="24px" font-style="normal" font-weight="normal" text-decoration="none" x="0" y="360">UNREGISTERED</text><text fill="#eeeeee" stroke="none" font-family="Arial" font-size="24px" font-style="normal" font-weight="normal" text-decoration="none" x="0" y="390">UNREGISTERED</text><text fill="#eeeeee" stroke="none" font-family="Arial" font-size="24px" font-style="normal" font-weight="normal" text-decoration="none" x="0" y="420">UNREGISTERED</text><text fill="#eeeeee" stroke="none" font-family="Arial" font-size="24px" font-style="normal" font-weight="normal" text-decoration="none" x="0" y="450">UNREGISTERED</text><text fill="#eeeeee" stroke="none" font-family="Arial" font-size="24px" font-style="normal" font-weight="normal" text-decoration="none" x="0" y="480">UNREGISTERED</text><text fill="#eeeeee" stroke="none" font-family="Arial" font-size="24px" font-style="normal" font-weight="normal" text-decoration="none" x="0" y="510">UNREGISTERED</text><text fill="#eeeeee" stroke="none" font-family="Arial" font-size="24px" font-style="normal" font-weight="normal" text-decoration="none" x="200" y="0">UNREGISTERED</text><text fill="#eeeeee" stroke="none" font-family="Arial" font-size="24px" font-style="normal" font-weight="normal" text-decoration="none" x="200" y="30">UNREGISTERED</text><text fill="#eeeeee" stroke="none" font-family="Arial" font-size="24px" font-style="normal" font-weight="normal" text-decoration="none" x="200" y="60">UNREGISTERED</text><text fill="#eeeeee" stroke="none" font-family="Arial" font-size="24px" font-style="normal" font-weight="normal" text-decoration="none" x="200" y="90">UNREGISTERED</text><text fill="#eeeeee" stroke="none" font-family="Arial" font-size="24px" font-style="normal" font-weight="normal" text-decoration="none" x="200" y="120">UNREGISTERED</text><text fill="#eeeeee" stroke="none" font-family="Arial" font-size="24px" font-style="normal" font-weight="normal" text-decoration="none" x="200" y="150">UNREGISTERED</text><text fill="#eeeeee" stroke="none" font-family="Arial" font-size="24px" font-style="normal" font-weight="normal" text-decoration="none" x="200" y="180">UNREGISTERED</text><text fill="#eeeeee" stroke="none" font-family="Arial" font-size="24px" font-style="normal" font-weight="normal" text-decoration="none" x="200" y="210">UNREGISTERED</text><text fill="#eeeeee" stroke="none" font-family="Arial" font-size="24px" font-style="normal" font-weight="normal" text-decoration="none" x="200" y="240">UNREGISTERED</text><text fill="#eeeeee" stroke="none" font-family="Arial" font-size="24px" font-style="normal" font-weight="normal" text-decoration="none" x="200" y="270">UNREGISTERED</text><text fill="#eeeeee" stroke="none" font-family="Arial" font-size="24px" font-style="normal" font-weight="normal" text-decoration="none" x="200" y="300">UNREGISTERED</text><text fill="#eeeeee" stroke="none" font-family="Arial" font-size="24px" font-style="normal" font-weight="normal" text-decoration="none" x="200" y="330">UNREGISTERED</text><text fill="#eeeeee" stroke="none" font-family="Arial" font-size="24px" font-style="normal" font-weight="normal" text-decoration="none" x="200" y="360">UNREGISTERED</text><text fill="#eeeeee" stroke="none" font-family="Arial" font-size="24px" font-style="normal" font-weight="normal" text-decoration="none" x="200" y="390">UNREGISTERED</text><text fill="#eeeeee" stroke="none" font-family="Arial" font-size="24px" font-style="normal" font-weight="normal" text-decoration="none" x="200" y="420">UNREGISTERED</text><text fill="#eeeeee" stroke="none" font-family="Arial" font-size="24px" font-style="normal" font-weight="normal" text-decoration="none" x="200" y="450">UNREGISTERED</text><text fill="#eeeeee" stroke="none" font-family="Arial" font-size="24px" font-style="normal" font-weight="normal" text-decoration="none" x="200" y="480">UNREGISTERED</text><text fill="#eeeeee" stroke="none" font-family="Arial" font-size="24px" font-style="normal" font-weight="normal" text-decoration="none" x="200" y="510">UNREGISTERED</text><text fill="#eeeeee" stroke="none" font-family="Arial" font-size="24px" font-style="normal" font-weight="normal" text-decoration="none" x="400" y="0">UNREGISTERED</text><text fill="#eeeeee" stroke="none" font-family="Arial" font-size="24px" font-style="normal" font-weight="normal" text-decoration="none" x="400" y="30">UNREGISTERED</text><text fill="#eeeeee" stroke="none" font-family="Arial" font-size="24px" font-style="normal" font-weight="normal" text-decoration="none" x="400" y="60">UNREGISTERED</text><text fill="#eeeeee" stroke="none" font-family="Arial" font-size="24px" font-style="normal" font-weight="normal" text-decoration="none" x="400" y="90">UNREGISTERED</text><text fill="#eeeeee" stroke="none" font-family="Arial" font-size="24px" font-style="normal" font-weight="normal" text-decoration="none" x="400" y="120">UNREGISTERED</text><text fill="#eeeeee" stroke="none" font-family="Arial" font-size="24px" font-style="normal" font-weight="normal" text-decoration="none" x="400" y="150">UNREGISTERED</text><text fill="#eeeeee" stroke="none" font-family="Arial" font-size="24px" font-style="normal" font-weight="normal" text-decoration="none" x="400" y="180">UNREGISTERED</text><text fill="#eeeeee" stroke="none" font-family="Arial" font-size="24px" font-style="normal" font-weight="normal" text-decoration="none" x="400" y="210">UNREGISTERED</text><text fill="#eeeeee" stroke="none" font-family="Arial" font-size="24px" font-style="normal" font-weight="normal" text-decoration="none" x="400" y="240">UNREGISTERED</text><text fill="#eeeeee" stroke="none" font-family="Arial" font-size="24px" font-style="normal" font-weight="normal" text-decoration="none" x="400" y="270">UNREGISTERED</text><text fill="#eeeeee" stroke="none" font-family="Arial" font-size="24px" font-style="normal" font-weight="normal" text-decoration="none" x="400" y="300">UNREGISTERED</text><text fill="#eeeeee" stroke="none" font-family="Arial" font-size="24px" font-style="normal" font-weight="normal" text-decoration="none" x="400" y="330">UNREGISTERED</text><text fill="#eeeeee" stroke="none" font-family="Arial" font-size="24px" font-style="normal" font-weight="normal" text-decoration="none" x="400" y="360">UNREGISTERED</text><text fill="#eeeeee" stroke="none" font-family="Arial" font-size="24px" font-style="normal" font-weight="normal" text-decoration="none" x="400" y="390">UNREGISTERED</text><text fill="#eeeeee" stroke="none" font-family="Arial" font-size="24px" font-style="normal" font-weight="normal" text-decoration="none" x="400" y="420">UNREGISTERED</text><text fill="#eeeeee" stroke="none" font-family="Arial" font-size="24px" font-style="normal" font-weight="normal" text-decoration="none" x="400" y="450">UNREGISTERED</text><text fill="#eeeeee" stroke="none" font-family="Arial" font-size="24px" font-style="normal" font-weight="normal" text-decoration="none" x="400" y="480">UNREGISTERED</text><text fill="#eeeeee" stroke="none" font-family="Arial" font-size="24px" font-style="normal" font-weight="normal" text-decoration="none" x="400" y="510">UNREGISTERED</text><text fill="#eeeeee" stroke="none" font-family="Arial" font-size="24px" font-style="normal" font-weight="normal" text-decoration="none" x="600" y="0">UNREGISTERED</text><text fill="#eeeeee" stroke="none" font-family="Arial" font-size="24px" font-style="normal" font-weight="normal" text-decoration="none" x="600" y="30">UNREGISTERED</text><text fill="#eeeeee" stroke="none" font-family="Arial" font-size="24px" font-style="normal" font-weight="normal" text-decoration="none" x="600" y="60">UNREGISTERED</text><text fill="#eeeeee" stroke="none" font-family="Arial" font-size="24px" font-style="normal" font-weight="normal" text-decoration="none" x="600" y="90">UNREGISTERED</text><text fill="#eeeeee" stroke="none" font-family="Arial" font-size="24px" font-style="normal" font-weight="normal" text-decoration="none" x="600" y="120">UNREGISTERED</text><text fill="#eeeeee" stroke="none" font-family="Arial" font-size="24px" font-style="normal" font-weight="normal" text-decoration="none" x="600" y="150">UNREGISTERED</text><text fill="#eeeeee" stroke="none" font-family="Arial" font-size="24px" font-style="normal" font-weight="normal" text-decoration="none" x="600" y="180">UNREGISTERED</text><text fill="#eeeeee" stroke="none" font-family="Arial" font-size="24px" font-style="normal" font-weight="normal" text-decoration="none" x="600" y="210">UNREGISTERED</text><text fill="#eeeeee" stroke="none" font-family="Arial" font-size="24px" font-style="normal" font-weight="normal" text-decoration="none" x="600" y="240">UNREGISTERED</text><text fill="#eeeeee" stroke="none" font-family="Arial" font-size="24px" font-style="normal" font-weight="normal" text-decoration="none" x="600" y="270">UNREGISTERED</text><text fill="#eeeeee" stroke="none" font-family="Arial" font-size="24px" font-style="normal" font-weight="normal" text-decoration="none" x="600" y="300">UNREGISTERED</text><text fill="#eeeeee" stroke="none" font-family="Arial" font-size="24px" font-style="normal" font-weight="normal" text-decoration="none" x="600" y="330">UNREGISTERED</text><text fill="#eeeeee" stroke="none" font-family="Arial" font-size="24px" font-style="normal" font-weight="normal" text-decoration="none" x="600" y="360">UNREGISTERED</text><text fill="#eeeeee" stroke="none" font-family="Arial" font-size="24px" font-style="normal" font-weight="normal" text-decoration="none" x="600" y="390">UNREGISTERED</text><text fill="#eeeeee" stroke="none" font-family="Arial" font-size="24px" font-style="normal" font-weight="normal" text-decoration="none" x="600" y="420">UNREGISTERED</text><text fill="#eeeeee" stroke="none" font-family="Arial" font-size="24px" font-style="normal" font-weight="normal" text-decoration="none" x="600" y="450">UNREGISTERED</text><text fill="#eeeeee" stroke="none" font-family="Arial" font-size="24px" font-style="normal" font-weight="normal" text-decoration="none" x="600" y="480">UNREGISTERED</text><text fill="#eeeeee" stroke="none" font-family="Arial" font-size="24px" font-style="normal" font-weight="normal" text-decoration="none" x="600" y="510">UNREGISTERED</text><text fill="#eeeeee" stroke="none" font-family="Arial" font-size="24px" font-style="normal" font-weight="normal" text-decoration="none" x="800" y="0">UNREGISTERED</text><text fill="#eeeeee" stroke="none" font-family="Arial" font-size="24px" font-style="normal" font-weight="normal" text-decoration="none" x="800" y="30">UNREGISTERED</text><text fill="#eeeeee" stroke="none" font-family="Arial" font-size="24px" font-style="normal" font-weight="normal" text-decoration="none" x="800" y="60">UNREGISTERED</text><text fill="#eeeeee" stroke="none" font-family="Arial" font-size="24px" font-style="normal" font-weight="normal" text-decoration="none" x="800" y="90">UNREGISTERED</text><text fill="#eeeeee" stroke="none" font-family="Arial" font-size="24px" font-style="normal" font-weight="normal" text-decoration="none" x="800" y="120">UNREGISTERED</text><text fill="#eeeeee" stroke="none" font-family="Arial" font-size="24px" font-style="normal" font-weight="normal" text-decoration="none" x="800" y="150">UNREGISTERED</text><text fill="#eeeeee" stroke="none" font-family="Arial" font-size="24px" font-style="normal" font-weight="normal" text-decoration="none" x="800" y="180">UNREGISTERED</text><text fill="#eeeeee" stroke="none" font-family="Arial" font-size="24px" font-style="normal" font-weight="normal" text-decoration="none" x="800" y="210">UNREGISTERED</text><text fill="#eeeeee" stroke="none" font-family="Arial" font-size="24px" font-style="normal" font-weight="normal" text-decoration="none" x="800" y="240">UNREGISTERED</text><text fill="#eeeeee" stroke="none" font-family="Arial" font-size="24px" font-style="normal" font-weight="normal" text-decoration="none" x="800" y="270">UNREGISTERED</text><text fill="#eeeeee" stroke="none" font-family="Arial" font-size="24px" font-style="normal" font-weight="normal" text-decoration="none" x="800" y="300">UNREGISTERED</text><text fill="#eeeeee" stroke="none" font-family="Arial" font-size="24px" font-style="normal" font-weight="normal" text-decoration="none" x="800" y="330">UNREGISTERED</text><text fill="#eeeeee" stroke="none" font-family="Arial" font-size="24px" font-style="normal" font-weight="normal" text-decoration="none" x="800" y="360">UNREGISTERED</text><text fill="#eeeeee" stroke="none" font-family="Arial" font-size="24px" font-style="normal" font-weight="normal" text-decoration="none" x="800" y="390">UNREGISTERED</text><text fill="#eeeeee" stroke="none" font-family="Arial" font-size="24px" font-style="normal" font-weight="normal" text-decoration="none" x="800" y="420">UNREGISTERED</text><text fill="#eeeeee" stroke="none" font-family="Arial" font-size="24px" font-style="normal" font-weight="normal" text-decoration="none" x="800" y="450">UNREGISTERED</text><text fill="#eeeeee" stroke="none" font-family="Arial" font-size="24px" font-style="normal" font-weight="normal" text-decoration="none" x="800" y="480">UNREGISTERED</text><text fill="#eeeeee" stroke="none" font-family="Arial" font-size="24px" font-style="normal" font-weight="normal" text-decoration="none" x="800" y="510">UNREGISTERED</text><g transform="translate(-150,-46) scale(1,1)"><rect fill="#ffffff" stroke="none" x="313" y="180" width="14" height="14"/></g><g transform="translate(-150,-46) scale(1,1)"><path fill="none" stroke="#000000" d="M 313 180 L 327 180 L 327 194 L 313 194 L 313 180 Z Z" stroke-miterlimit="10"/></g><g transform="translate(-150,-46) scale(1,1)"><g><path fill="none" stroke="none"/><text fill="#000000" stroke="none" font-family="Arial" font-size="13px" font-style="normal" font-weight="normal" text-decoration="none" x="269.222900390625" y="178">CAN_PORT</text></g></g><g transform="translate(-150,-46) scale(1,1)"><rect fill="#ffffff" stroke="none" x="585" y="217" width="14" height="14"/></g><g transform="translate(-150,-46) scale(1,1)"><path fill="none" stroke="#000000" d="M 585 217 L 599 217 L 599 231 L 585 231 L 585 217 Z Z" stroke-miterlimit="10"/></g><g transform="translate(-150,-46) scale(1,1)"><g><path fill="none" stroke="none"/><text fill="#000000" stroke="none" font-family="Arial" font-size="13px" font-style="normal" font-weight="normal" text-decoration="none" x="541.222900390625" y="215">CAN_PORT</text></g></g><g transform="translate(-150,-46) scale(1,1)"><rect fill="#ffffff" stroke="none" x="729" y="425" width="14" height="14"/></g><g transform="translate(-150,-46) scale(1,1)"><path fill="none" stroke="#000000" d="M 729 425 L 743 425 L 743 439 L 729 439 L 729 425 Z Z" stroke-miterlimit="10"/></g><g transform="translate(-150,-46) scale(1,1)"><g><path fill="none" stroke="none"/><text fill="#000000" stroke="none" font-family="Arial" font-size="13px" font-style="normal" font-weight="normal" text-decoration="none" x="685.222900390625" y="423">CAN_PORT</text></g></g><g transform="translate(-150,-46) scale(1,1)"><rect fill="#C0C0C0" stroke="none" x="167" y="63" width="316.8" height="15" opacity="0.2"/></g><g transform="translate(-150,-46) scale(1,1)"><rect fill="#C0C0C0" stroke="none" x="167" y="77" width="792" height="482" opacity="0.2"/></g><g transform="translate(-150,-46) scale(1,1)"><rect fill="#ffffff" stroke="none" x="160" y="71" width="792" height="481"/></g><g transform="translate(-150,-46) scale(1,1)"><path fill="none" stroke="#000000" d="M 160 71 L 952 71 L 952 552 L 160 552 L 160 71 Z Z" stroke-miterlimit="10"/></g><g transform="translate(-150,-46) scale(1,1)"><rect fill="#ffffff" stroke="none" x="160" y="56" width="316.8" height="15"/></g><g transform="translate(-150,-46) scale(1,1)"><path fill="none" stroke="#000000" d="M 160 56 L 476.8 56 L 476.8 71 L 160 71 L 160 56 Z Z" stroke-miterlimit="10"/></g><g transform="translate(-150,-46) scale(1,1)"><rect fill="#ffffff" stroke="none" x="160" y="70" width="792" height="482"/></g><g transform="translate(-150,-46) scale(1,1)"><path fill="none" stroke="#000000" d="M 160 70 L 952 70 L 952 552 L 160 552 L 160 70 Z Z" stroke-miterlimit="10"/></g><g transform="translate(-150,-46) scale(1,1)"><path fill="none" stroke="#000000" d="M 467.8 59 L 461.8 66 L 473.8 66 L 467.8 59" stroke-miterlimit="10"/></g><g transform="translate(-150,-46) scale(1,1)"><g><path fill="none" stroke="none"/><text fill="#000000" stroke="none" font-family="Arial" font-size="13px" font-style="normal" font-weight="bold" text-decoration="none" x="491.333251953125" y="90.5">Communication Model</text></g></g><g transform="translate(-150,-46) scale(1,1)"><rect fill="#C0C0C0" stroke="none" x="199" y="111" width="51.19999999999999" height="15" opacity="0.2"/></g><g transform="translate(-150,-46) scale(1,1)"><rect fill="#C0C0C0" stroke="none" x="199" y="125" width="128" height="130" opacity="0.2"/></g><g transform="translate(-150,-46) scale(1,1)"><rect fill="#ffffff" stroke="none" x="192" y="119" width="128" height="129"/></g><g transform="translate(-150,-46) scale(1,1)"><path fill="none" stroke="#000000" d="M 192 119 L 320 119 L 320 248 L 192 248 L 192 119 Z Z" stroke-miterlimit="10"/></g><g transform="translate(-150,-46) scale(1,1)"><rect fill="#ffffff" stroke="none" x="192" y="104" width="51.19999999999999" height="15"/></g><g transform="translate(-150,-46) scale(1,1)"><path fill="none" stroke="#000000" d="M 192 104 L 243.2 104 L 243.2 119 L 192 119 L 192 104 Z Z" stroke-miterlimit="10"/></g><g transform="translate(-150,-46) scale(1,1)"><rect fill="#ffffff" stroke="none" x="192" y="118" width="128" height="130"/></g><g transform="translate(-150,-46) scale(1,1)"><path fill="none" stroke="#000000" d="M 192 118 L 320 118 L 320 248 L 192 248 L 192 118 Z Z" stroke-miterlimit="10"/></g><g transform="translate(-150,-46) scale(1,1)"><path fill="none" stroke="#000000" d="M 235.2 107 L 235.2 111" stroke-miterlimit="10"/></g><g transform="translate(-150,-46) scale(1,1)"><path fill="none" stroke="#000000" d="M 232.2 115 L 232.2 111 L 238.2 111" stroke-miterlimit="10"/></g><g transform="translate(-150,-46) scale(1,1)"><path fill="none" stroke="#000000" d="M 238.2 115 L 238.2 111 L 232.2 111" stroke-miterlimit="10"/></g><g transform="translate(-150,-46) scale(1,1)"><g><path fill="none" stroke="none"/><text fill="#000000" stroke="none" font-family="Arial" font-size="13px" font-style="normal" font-weight="bold" text-decoration="none" x="237.2236328125" y="138.5">DCDC</text></g></g><g transform="translate(-150,-46) scale(1,1)"><rect fill="#C0C0C0" stroke="none" x="599" y="135" width="54.39999999999998" height="15" opacity="0.2"/></g><g transform="translate(-150,-46) scale(1,1)"><rect fill="#C0C0C0" stroke="none" x="599" y="149" width="136" height="122" opacity="0.2"/></g><g transform="translate(-150,-46) scale(1,1)"><rect fill="#ffffff" stroke="none" x="592" y="143" width="136" height="121"/></g><g transform="translate(-150,-46) scale(1,1)"><path fill="none" stroke="#000000" d="M 592 143 L 728 143 L 728 264 L 592 264 L 592 143 Z Z" stroke-miterlimit="10"/></g><g transform="translate(-150,-46) scale(1,1)"><rect fill="#ffffff" stroke="none" x="592" y="128" width="54.39999999999998" height="15"/></g><g transform="translate(-150,-46) scale(1,1)"><path fill="none" stroke="#000000" d="M 592 128 L 646.4 128 L 646.4 143 L 592 143 L 592 128 Z Z" stroke-miterlimit="10"/></g><g transform="translate(-150,-46) scale(1,1)"><rect fill="#ffffff" stroke="none" x="592" y="142" width="136" height="122"/></g><g transform="translate(-150,-46) scale(1,1)"><path fill="none" stroke="#000000" d="M 592 142 L 728 142 L 728 264 L 592 264 L 592 142 Z Z" stroke-miterlimit="10"/></g><g transform="translate(-150,-46) scale(1,1)"><path fill="none" stroke="#000000" d="M 638.4 131 L 638.4 135" stroke-miterlimit="10"/></g><g transform="translate(-150,-46) scale(1,1)"><path fill="none" stroke="#000000" d="M 635.4 139 L 635.4 135 L 641.4 135" stroke-miterlimit="10"/></g><g transform="translate(-150,-46) scale(1,1)"><path fill="none" stroke="#000000" d="M 641.4 139 L 641.4 135 L 635.4 135" stroke-miterlimit="10"/></g><g transform="translate(-150,-46) scale(1,1)"><g><path fill="none" stroke="none"/><text fill="#000000" stroke="none" font-family="Arial" font-size="13px" font-style="normal" font-weight="bold" text-decoration="none" x="638.8115234375" y="162.5">STARK</text></g></g><g transform="translate(-150,-46) scale(1,1)"><rect fill="#C0C0C0" stroke="none" x="743" y="375" width="70" height="15" opacity="0.2"/></g><g transform="translate(-150,-46) scale(1,1)"><rect fill="#C0C0C0" stroke="none" x="743" y="389" width="175" height="129" opacity="0.2"/></g><g transform="translate(-150,-46) scale(1,1)"><rect fill="#ffffff" stroke="none" x="736" y="383" width="175" height="128"/></g><g transform="translate(-150,-46) scale(1,1)"><path fill="none" stroke="#000000" d="M 736 383 L 911 383 L 911 511 L 736 511 L 736 383 Z Z" stroke-miterlimit="10"/></g><g transform="translate(-150,-46) scale(1,1)"><rect fill="#ffffff" stroke="none" x="736" y="368" width="70" height="15"/></g><g transform="translate(-150,-46) scale(1,1)"><path fill="none" stroke="#000000" d="M 736 368 L 806 368 L 806 383 L 736 383 L 736 368 Z Z" stroke-miterlimit="10"/></g><g transform="translate(-150,-46) scale(1,1)"><rect fill="#ffffff" stroke="none" x="736" y="382" width="175" height="129"/></g><g transform="translate(-150,-46) scale(1,1)"><path fill="none" stroke="#000000" d="M 736 382 L 911 382 L 911 511 L 736 511 L 736 382 Z Z" stroke-miterlimit="10"/></g><g transform="translate(-150,-46) scale(1,1)"><path fill="none" stroke="#000000" d="M 798 371 L 798 375" stroke-miterlimit="10"/></g><g transform="translate(-150,-46) scale(1,1)"><path fill="none" stroke="#000000" d="M 795 379 L 795 375 L 801 375" stroke-miterlimit="10"/></g><g transform="translate(-150,-46) scale(1,1)"><path fill="none" stroke="#000000" d="M 801 379 L 801 375 L 795 375" stroke-miterlimit="10"/></g><g transform="translate(-150,-46) scale(1,1)"><g><path fill="none" stroke="none"/><text fill="#000000" stroke="none" font-family="Arial" font-size="13px" font-style="normal" font-weight="bold" text-decoration="none" x="809.7763671875" y="402.5">VCU</text></g></g><g transform="translate(-150,-46) scale(1,1)"><rect fill="#ffffff" stroke="none" x="729" y="427" width="14" height="14"/></g><g transform="translate(-150,-46) scale(1,1)"><path fill="none" stroke="#000000" d="M 729 427 L 743 427 L 743 441 L 729 441 L 729 427 Z Z" stroke-miterlimit="10"/></g><g transform="translate(-150,-46) scale(1,1)"><g><path fill="none" stroke="none"/><text fill="#000000" stroke="none" font-family="Arial" font-size="13px" font-style="normal" font-weight="normal" text-decoration="none" x="685.222900390625" y="425">CAN_PORT</text></g></g><g transform="translate(-150,-46) scale(1,1)"><rect fill="#ffffff" stroke="none" x="585" y="229" width="14" height="14"/></g><g transform="translate(-150,-46) scale(1,1)"><path fill="none" stroke="#000000" d="M 585 229 L 599 229 L 599 243 L 585 243 L 585 229 Z Z" stroke-miterlimit="10"/></g><g transform="translate(-150,-46) scale(1,1)"><g><path fill="none" stroke="none"/><text fill="#000000" stroke="none" font-family="Arial" font-size="13px" font-style="normal" font-weight="normal" text-decoration="none" x="541.222900390625" y="227">CAN_PORT</text></g></g><g transform="translate(-150,-46) scale(1,1)"><rect fill="#ffffff" stroke="none" x="291" y="241" width="14" height="14"/></g><g transform="translate(-150,-46) scale(1,1)"><path fill="none" stroke="#000000" d="M 291 241 L 305 241 L 305 255 L 291 255 L 291 241 Z Z" stroke-miterlimit="10"/></g><g transform="translate(-150,-46) scale(1,1)"><g><path fill="none" stroke="none"/><text fill="#000000" stroke="none" font-family="Arial" font-size="13px" font-style="normal" font-weight="normal" text-decoration="none" x="247.222900390625" y="239">CAN_PORT</text></g></g><g transform="translate(-150,-46) scale(1,1)"><path fill="none" stroke="#000000" d="M 584 240 L 568 248 L 306 248" stroke-miterlimit="10"/></g><g transform="translate(-150,-46) scale(1,1)"><g><path fill="none" stroke="none"/><text fill="#000000" stroke="none" font-family="Arial" font-size="13px" font-style="normal" font-weight="normal" text-decoration="none" x="415.5" y="227.5">+CAN_STRAT</text></g></g><g transform="translate(-150,-46) scale(1,1)"><g><path fill="none" stroke="none"/><text fill="#000000" stroke="none" font-family="Arial" font-size="13px" font-style="normal" font-weight="normal" text-decoration="none" x="398.5" y="263.5">+MSG_ID  to define</text></g></g><g transform="translate(-150,-46) scale(1,1)"><path fill="none" stroke="#000000" d="M 594 244 L 624 376 L 728 430" stroke-miterlimit="10"/></g><g transform="translate(-150,-46) scale(1,1)"><g><path fill="none" stroke="none"/><text fill="#000000" stroke="none" font-family="Arial" font-size="13px" font-style="normal" font-weight="normal" text-decoration="none" x="639.5" y="332.5">+CAN_STRAT</text></g></g><g transform="translate(-150,-46) scale(1,1)"><g><path fill="none" stroke="none"/><text fill="#000000" stroke="none" font-family="Arial" font-size="13px" font-style="normal" font-weight="normal" text-decoration="none" x="574.5" y="404.5">+MSG_ID = 0x400</text></g></g><g transform="translate(-150,-46) scale(1,1)"><path fill="none" stroke="#000000" d="M 598 244 L 730 426" stroke-miterlimit="10"/></g><g transform="translate(-150,-46) scale(1,1)"><g><path fill="none" stroke="none"/><text fill="#000000" stroke="none" font-family="Arial" font-size="13px" font-style="normal" font-weight="normal" text-decoration="none" x="566.5" y="355.5">+CAN_STRAT</text></g></g><g transform="translate(-150,-46) scale(1,1)"><g><path fill="none" stroke="none"/><text fill="#000000" stroke="none" font-family="Arial" font-size="13px" font-style="normal" font-weight="normal" text-decoration="none" x="606.5" y="291.5">+MSG_ID=401</text></g></g></g></svg>